<?xml version="1.0" encoding="UTF-8" standalone="no"?>
<!-- Created with Inkscape (http://www.inkscape.org/) -->

<svg
   width="128"
   height="128"
   viewBox="0 0 128 128"
   version="1.1"
   id="svg1"
   xml:space="preserve"
   xmlns:xlink="http://www.w3.org/1999/xlink"
   xmlns="http://www.w3.org/2000/svg"
   xmlns:svg="http://www.w3.org/2000/svg"><defs
     id="defs1"><filter
       style="color-interpolation-filters:sRGB"
       id="filter53"
       x="-9.4886687"
       y="-28.212058"
       width="19.971953"
       height="57.424115"><feGaussianBlur
         stdDeviation="10.603034"
         id="feGaussianBlur53" /></filter></defs><g
     id="g63"
     style="display:inline"
     transform="translate(-1780.2688,-1687.7492)"><g
       id="g54"
       style="display:inline;fill:#007f0e;fill-opacity:1"><path
         style="display:inline;opacity:1;fill:#007f0e;fill-opacity:1;stroke:#000000;stroke-width:4;stroke-linecap:round;stroke-linejoin:round"
         d="m 1055.8056,191.29025 c 10.0515,1.22869 20.1174,2.18076 28.5369,-1.73755 2.8475,-7.49769 2.526,-24.82224 -0.155,-29.22322 -9.7873,-3.58919 -18.2947,-3.91812 -26.579,-0.55286 2.3808,-12.62779 5.1264,-36.37073 1.8094,-47.82739 21.3029,-1.01722 36.7102,-0.90792 53.0942,-5.18736 12.165,-3.17744 14.4971,-30.90914 2.4493,-32.700666 -24.6938,-3.671998 -76.6394,-1.520918 -81.0409,5.192739 -5.9857,9.13002 -11.1858,109.157157 -4.5912,169.935667 0.7207,6.64244 22.3127,4.84458 23.9665,0.23063 4.8729,-13.59495 5.1479,-32.61809 2.5098,-58.12999 z"
         id="path10" /><path
         style="display:inline;opacity:1;fill:#007f0e;fill-opacity:1;stroke:#000000;stroke-width:4;stroke-linecap:round;stroke-linejoin:round"
         d="m 1106.8504,165.128 c 3.0455,-10.71832 -19.9376,-16.55206 -23.9863,-4.55984 -21.3446,63.22229 -5.0194,91.73658 27.5952,92.50129 41.5802,0.97491 54.2827,-53.12127 47.2034,-92.80439 -1.1772,-6.59876 -27.1148,-7.30004 -25.1472,1.50115 4.1066,18.36902 5.0002,63.90543 -20.136,61.2954 -22.3138,-2.31697 -10.8881,-39.07292 -5.5291,-57.93361 z"
         id="path25" /><path
         style="display:inline;opacity:1;fill:#007f0e;fill-opacity:1;stroke:#000000;stroke-width:4;stroke-linecap:round;stroke-linejoin:round"
         d="m 1173.0635,230.57696 c 18.3343,-3.91098 37.4567,-5.85757 53.0913,0.73116 1.8387,5.08966 4.1547,9.24652 -1.5307,19.4482 -20.8267,4.56878 -78.4628,4.28462 -80.6526,-2.09735 -9.4386,-27.50764 38.1891,-57.22768 55.7726,-68.23174 -7.4304,0.4717 -30.7368,6.63967 -54.9687,-0.83299 -4.0458,-1.24764 -4.76,-17.56031 0.535,-19.61412 14.7012,-5.70225 57.702,-7.86056 81.2279,2.39828 10.5002,31.11911 -33.0313,54.09293 -53.4748,68.19856 z"
         id="path28" /><path
         style="display:inline;fill:#007f0e;fill-opacity:1;stroke:#000000;stroke-width:4;stroke-linecap:round;stroke-linejoin:round"
         d="m 1246.2527,230.02853 c 18.3343,-4.04613 37.4567,-6.05998 53.0913,0.75642 1.8387,5.26554 4.9293,18.60812 -1.5307,20.12024 -20.7943,4.8674 -79.0136,3.02047 -80.6526,-2.16982 -9.0334,-28.60628 38.1891,-59.20521 55.7726,-70.58952 -7.6994,0.82995 -30.7512,6.91374 -54.9687,-0.86177 -3.6592,-1.17486 -3.831,-18.44087 0.535,-20.29189 14.58,-6.18143 57.702,-8.13219 81.2279,2.48115 10.5002,32.19444 -33.0313,55.96213 -53.4748,70.55519 z"
         id="path28-5" /><path
         style="display:inline;opacity:1;fill:#007f0e;fill-opacity:1;stroke:#000000;stroke-width:4;stroke-linecap:round;stroke-linejoin:round"
         d="m 1346.5079,218.0336 c -0.3066,-3.38369 -11.7366,-11.78664 -17.3702,-3.17027 -1.6949,2.59227 -0.4718,9.87526 -6.0081,11.879 -5.7365,2.0762 -12.2621,-1.21948 -11.5709,-11.56593 1.5922,-23.82655 6.4683,-102.66336 2.7245,-114.54924 -1.1818,-3.752089 -15.004,-3.16395 -16.2288,0.37337 -8.9049,25.71739 -6.7121,79.44597 -7.3123,120.72265 -0.213,14.64611 5.2885,30.50356 22.3751,30.89035 16.8439,0.38128 35.5717,-10.50659 33.3907,-34.57993 z"
         id="path29" /><path
         id="path36"
         style="display:inline;opacity:1;fill:#007f0e;fill-opacity:1;stroke:#000000;stroke-width:4;stroke-linecap:round;stroke-linejoin:round"
         d="m 1373.3058,154.98134 c -24.5723,-0.46169 -39.9307,23.92763 -39.4869,51.30842 0.4184,25.81301 15.1276,45.44877 36.9162,46.65391 17.368,0.96063 32.8479,-14.41056 32.0516,-22.03461 -0.4436,-6.81925 -10.4591,-14.32727 -14.0796,-8.83008 -3.7296,5.66284 -10.7174,9.07132 -16.5747,8.40514 -7.0279,-0.7993 -17.8577,-10.87196 -16.7977,-18.38328 19.0012,5.8109 37.0366,-2.27025 49.396,-8.32713 4.474,-19.5857 -7.4034,-48.34102 -31.4249,-48.79237 z m -2.5128,21.70268 c 6.8475,-0.54902 10.8556,5.48304 12.702,12.79098 -6.6364,2.1432 -16.7094,3.98444 -27.1715,2.51026 2.8959,-10.02701 6.3221,-14.64799 14.4695,-15.30124 z" /><path
         id="path10-2"
         style="display:inline;fill:#007f0e;fill-opacity:1;stroke:#000000;stroke-width:4.00001;stroke-linecap:round;stroke-linejoin:round"
         d="M 1403.6895,74.608512 C 1395.196,101.06712 1393.1,179.10091 1398.7118,252.661 c 14.0513,0.46699 26.7841,1.61432 36.8319,-0.21202 82.8914,-15.06671 45.466,-100.56969 20.5621,-102.88447 29.9644,-12.93956 33.6833,-87.306786 -52.4163,-74.955998 z m 21.2574,65.633298 c 5.8389,-17.79318 2.4851,-37.83302 -0.9733,-42.287522 34.683,1.451627 38.2982,35.312792 0.9733,42.287522 z m -0.2891,24.48418 c 48.0682,1.0395 47.948,68.31797 -0.9394,65.95646 8.0583,-24.33613 4.474,-50.06918 0.9394,-65.95646 z" /><path
         id="path38"
         style="display:inline;opacity:1;fill:#007f0e;fill-opacity:1;stroke:#000000;stroke-width:3.99999;stroke-linecap:round;stroke-linejoin:round"
         d="m 1514.1383,154.80921 c -0.9872,0.007 -1.9846,0.0765 -2.9938,0.20782 -32.9978,4.29328 -50.0313,52.56467 -28.8503,85.91555 11.6046,18.27217 50.5388,12.77544 59.7303,0.62978 22.2327,-29.37828 2.7148,-87.00045 -27.8862,-86.75315 z m 14.5107,65.87521 c -4.9025,12.45983 -24.6409,15.10992 -31.4926,0.49693 -5.4543,-11.63271 1.8082,-40.00686 15.0411,-40.93272 12.2165,-0.85475 24.9656,18.79702 16.4515,40.43579 z" /><path
         style="display:inline;opacity:1;fill:#007f0e;fill-opacity:1;stroke:#000000;stroke-width:4;stroke-linecap:round;stroke-linejoin:round"
         d="m 1547.3456,249.63225 c -2.1453,-32.76355 -1.8858,-65.8087 -0.7114,-107.29856 -7.2696,0.50924 -18.0107,1.92286 -20.2697,-0.8961 -3.2487,-4.05392 -2.5818,-18.14249 0.1964,-21.2116 2.4647,-2.72275 13.6591,-2.20177 19.8209,-1.76206 -0.6828,-6.99537 0.3873,-17.11766 2.886,-19.077019 2.5577,-2.005571 17.2285,-2.179629 20.1444,-0.0128 2.4714,1.836509 3.0427,14.132899 1.9687,19.955389 6.5403,-1.04498 16.7742,-1.66139 20.7383,0.97146 3.7306,2.47772 2.4734,19.0631 -0.2488,21.07622 -3.2829,2.42776 -16.9275,2.30353 -21.7747,1.38056 2.7378,28.87094 2.5929,91.6505 -3.6164,108.51832 -1.7907,4.86425 -18.8656,2.45028 -19.1337,-1.64381 z"
         id="path39" /></g><g
       id="g53"
       style="display:inline;opacity:0.713755;mix-blend-mode:lighten;filter:url(#filter53)"><path
         style="display:inline;opacity:1;fill:none;fill-opacity:1;stroke:#05ff1a;stroke-width:30;stroke-linecap:round;stroke-linejoin:round;stroke-dasharray:none;stroke-opacity:1"
         d="m 1049.279,97.808046 c 15.834,0 44.1371,5.528204 60.1801,-2.100829 3.1525,-1.499118 0.029,-7.315431 2.6052,-9.765588 -16.5621,-4.616619 -48.7934,-3.978648 -66.1362,0.521616 -1.9864,9.255 4.1402,26.530945 3.2275,35.970485 -2.6285,27.18584 -2.7875,53.96543 -3.6575,81.18255 -0.2066,6.46 -1.8291,38.42045 -3.2358,35.67949 -3.7888,-22.89688 -3.684,-45.70166 -3.684,-68.82951 0,-18.72239 1.3846,-54.23697 4.0354,-72.252693"
         id="path42" /><path
         style="display:inline;opacity:1;fill:none;fill-opacity:1;stroke:#05ff1a;stroke-width:30;stroke-linecap:round;stroke-linejoin:round;stroke-dasharray:none;stroke-opacity:1"
         d="m 1049.4202,175.62387 c 8.1253,-4.81083 23.2463,2.50169 30.0105,-2.20415"
         id="path43" /><path
         style="display:inline;opacity:1;fill:none;fill-opacity:1;stroke:#05ff1a;stroke-width:30;stroke-linecap:round;stroke-linejoin:round;stroke-dasharray:none;stroke-opacity:1"
         d="m 1096.7324,161.43068 c -5.0864,7.50394 -6.3056,16.27913 -8.3644,24.80435 -1.7492,7.24318 -1.6842,19.94922 -0.613,27.41356 4.3971,35.39256 37.2225,40.00417 53.0975,3.73215 4.9106,-11.22001 5.7542,-22.29318 6.6686,-34.11179 0.4523,-5.84748 1.2332,-17.11392 -3.999,-20.88647"
         id="path44" /><path
         style="display:inline;opacity:1;fill:none;fill-opacity:1;stroke:#05ff1a;stroke-width:30;stroke-linecap:round;stroke-linejoin:round;stroke-dasharray:none;stroke-opacity:1"
         d="m 1152.7736,166.52792 c 7.4755,0.72178 14.9964,1.21702 22.5079,1.42997 8.163,0.23143 31.161,-0.44132 39.8072,2.9286 10.5485,4.11134 -27.6038,39.13294 -37.6458,41.99946 -4.7065,1.34349 -21.168,22.38842 -21.168,27.70043 0,0.87683 31.086,-0.37224 33.928,-0.42534 5.1257,-0.0958 34.7802,-0.21115 30.3216,-4.72926"
         id="path45" /><path
         style="display:inline;opacity:1;fill:none;fill-opacity:1;stroke:#05ff1a;stroke-width:30;stroke-linecap:round;stroke-linejoin:round;stroke-dasharray:none;stroke-opacity:1"
         d="m 1229.4204,166.44742 c 7.0498,2.62876 16.1416,0.27459 23.5465,1.06073 6.8564,0.72791 17.1237,-2.1851 23.9302,-1.0573 5.6281,0.93254 6.1483,3.17911 11.8671,3.34186 1.6394,0.0467 6.5786,1.08055 5.9839,2.60903 -2.1334,5.48321 -71.2237,53.34582 -66.2888,69.01864 0.4298,1.3649 57.2316,-0.49088 59.2615,-1.67792"
         id="path46" /><path
         style="display:inline;opacity:1;fill:none;fill-opacity:1;stroke:#05ff1a;stroke-width:30;stroke-linecap:round;stroke-linejoin:round;stroke-dasharray:none;stroke-opacity:1"
         d="m 1305.7357,101.1398 c -0.8881,27.27456 -9.5176,113.80829 3.2694,137.7528 5.4344,10.17621 23.7152,-5.14047 24.9015,-14.62361"
         id="path47" /><path
         style="display:inline;opacity:1;fill:none;fill-opacity:1;stroke:#05ff1a;stroke-width:30;stroke-linecap:round;stroke-linejoin:round;stroke-dasharray:none;stroke-opacity:1"
         d="m 1345.4665,200.55445 c 6.5893,2.8463 14.939,1.83195 21.7817,0.90837 60.0405,-8.10387 3.3494,-57.67703 -16.3409,-24.6928 -4.1117,6.88765 -7.9518,23.03364 -6.2933,30.6196 2.8502,13.03762 15.4159,34.2787 33.6786,34.77534 4.451,0.12104 18.6812,-7.25667 14.8703,-11.62682"
         id="path48" /><path
         style="display:inline;opacity:1;fill:none;fill-opacity:1;stroke:#05ff1a;stroke-width:30;stroke-linecap:round;stroke-linejoin:round;stroke-dasharray:none;stroke-opacity:1"
         d="m 1412.3258,85.405836 c 3.9387,26.521694 3.2629,43.207814 -0.9236,65.861144 8.1676,7.06616 6.623,82.69778 1.3589,85.88597 -13.2535,8.02702 61.6695,-0.63929 63.7924,-31.38601 0.9819,-14.22148 -11.788,-39.10756 -24.0633,-46.01009 -6.466,-3.63585 -12.8205,-8.26164 -19.958,-10.1779 -3.4899,-0.93694 -13.9052,-2.64509 -10.8124,-0.77654 3.3743,2.03868 12.5148,-3.74381 15.6752,-5.1659 6.3437,-2.85446 15.387,-4.55225 19.5414,-10.49041 19.6618,-28.10422 -3.7333,-52.512779 -44.6106,-47.740264 z"
         id="path49" /><path
         style="display:inline;mix-blend-mode:lighten;fill:none;fill-opacity:1;stroke:#05ff1a;stroke-width:30;stroke-linecap:round;stroke-linejoin:round;stroke-dasharray:none;stroke-opacity:1;filter:url(#filter53)"
         d="m 1410.5559,94.337349 c -5.1248,39.439541 -5.6872,91.318511 -1.3839,135.082451"
         id="path53-7" /><path
         style="display:inline;opacity:1;fill:none;fill-opacity:1;stroke:#05ff1a;stroke-width:30;stroke-linecap:round;stroke-linejoin:round;stroke-dasharray:none;stroke-opacity:1"
         d="m 1513.2415,168.39114 c 17.7105,-0.79148 20.3701,9.60502 24.8669,22.69129 2.5778,7.50195 5.7959,19.32729 3.7898,26.99383 -9.1016,34.78185 -39.3283,28.75143 -52.1569,12.18641 -10.5065,-13.56674 -9.8676,-39.21516 7.6907,-55.65768 4.0368,-3.78027 10.1947,-7.72821 15.8095,-6.21385 z"
         id="path50" /><path
         style="display:inline;opacity:1;fill:none;fill-opacity:1;stroke:#05ff1a;stroke-width:30;stroke-linecap:round;stroke-linejoin:round;stroke-dasharray:none;stroke-opacity:1"
         d="m 1560.4413,107.27401 c -1.3034,8.58222 -1.2358,18.44649 -1.3528,27.14372 -0.331,24.61469 -0.5716,46.91733 -0.296,71.59342 0.1547,13.85146 0.1416,30.71759 -0.8674,39.65514"
         id="path52" /><path
         style="display:inline;opacity:1;fill:none;fill-opacity:1;stroke:#05ff1a;stroke-width:30;stroke-linecap:round;stroke-linejoin:round;stroke-dasharray:none;stroke-opacity:1"
         d="m 1533.6287,130.24295 c 12.1107,3.56474 39.9473,4.2106 49.6106,0.81147"
         id="path53" /></g></g><use
     x="0"
     y="0"
     xlink:href="#g63"
     id="use63"
     transform="translate(257.55286,950.89779)" /><g
     id="g41"
     transform="translate(-1779.8336,-1683.2392)"><path
       style="fill:#777777;fill-opacity:1;stroke:#010100;stroke-width:4;stroke-linecap:round;stroke-linejoin:round;stroke-opacity:1;stop-color:#000000"
       d="m 1810.323,1729.2764 c -11.1825,-8.0442 -8.7631,-25.4774 -8.3742,-36.9529 13.2372,1.4788 30.8594,17.6147 33.8662,27.9231"
       id="path25211" /><path
       style="fill:#777777;fill-opacity:1;stroke:#010100;stroke-width:4;stroke-linecap:round;stroke-linejoin:round;stroke-opacity:1;stop-color:#000000"
       d="m 1854.6397,1716.0789 c 7.2374,-10.4081 22.7631,-17.8126 35.5407,-23.209 4.0147,15.0099 -1.6208,27.6448 -11.1723,39.3225"
       id="path25205" /><path
       style="fill:#0f0f0f;fill-opacity:1;stroke:#010100;stroke-width:4;stroke-linecap:round;stroke-linejoin:round;stroke-opacity:1;stop-color:#000000"
       d="m 1801.2484,1748.262 c 12.0077,-17.6011 52.2051,-27.243 76.3718,-3.2433 3.5119,3.4873 4.9027,8.142 4.8985,8.1634 -11.4301,16.11 -13.7578,30.1619 -27.8762,44.0257 -5.3085,5.2128 -22.1589,7.2099 -28.877,1.4439 -11.7701,-10.1021 -13.9269,-38.6041 -22.3236,-45.9788 z"
       id="path25187" /><path
       style="fill:none;fill-opacity:1;stroke:#05ff1a;stroke-width:4;stroke-linecap:round;stroke-linejoin:round;stroke-opacity:1;stop-color:#000000"
       d="m 1821.0938,1762.3149 c 2.6421,-4.1238 10.9209,-5.594 14.967,-2.4865"
       id="path25262" /><path
       style="fill:none;fill-opacity:1;stroke:#05ff1a;stroke-width:4;stroke-linecap:round;stroke-linejoin:round;stroke-opacity:1;stop-color:#000000"
       d="m 1846.3333,1760.5514 c 4.8564,-3.7613 11.2554,-4.0963 13.7286,1.3243"
       id="path25264" /><path
       id="path25199"
       style="fill:#007f0e;fill-opacity:1;stroke:#010100;stroke-width:4;stroke-linecap:round;stroke-linejoin:round;stroke-opacity:1;stop-color:#000000"
       d="m 1857.9453,1699.5352 c -2.9367,-0.4496 -8.4572,6.6928 -11.7617,7.0039 -3.9032,0.367 -2.5707,-5.4752 -5.2695,-6.4981 -3.6425,-1.3807 -8.7918,12.2252 -12.3223,13.1231 -3.8442,0.978 -9.0366,-8.9653 -12.2676,-7.0782 -3.0246,1.7667 -0.4745,13.6988 -1.7656,17.2559 -1.0089,2.7796 -8.7671,-4.801 -10.4063,-2.252 -3.9071,6.0757 -2.105,11.4088 -2.4785,16.9571 -6.7186,3.109 -6.2552,7.8587 3.0785,10.1637 2.0527,0.5069 7.796,6.3561 8.0299,5.8873 1.2291,-2.4629 2.0699,-9.6488 4.391,-7.8124 2.7544,2.1791 6.3503,6.46 7.9913,5.4845 2.6104,-1.5517 4.606,-7.3845 6.1987,-7.5735 4.3303,-0.5141 4.7993,9.3429 8.7199,9.648 3.2366,0.2519 2.9039,-6.7014 7.0856,-6.6804 3.9539,0.02 6.6067,5.5063 9.0647,5.1678 3.3156,-0.4566 3.9366,-9.0698 6.2369,-8.0808 3.1472,1.3531 0.4699,5.8538 3.1422,7.7583 2.9793,2.1235 8.8332,-2.7497 12.6013,-3.6911 1.6241,-4.6313 3.1439,-4.0566 6.9014,-8.1464 2.4915,-6.7941 5.8192,-17.8005 5.3926,-18.0762 -1.5055,-0.9713 -15.1482,3.653 -15.6387,1.6016 -0.486,-2.0301 4.3158,-13.728 1.5586,-14.9141 -2.8521,-1.2273 -13.6002,7.7929 -15.3457,5.498 -2.1779,-2.8628 1.2981,-12.2468 -2.584,-14.5507 -0.1713,-0.1017 -0.3569,-0.1654 -0.5527,-0.1953 z" /><path
       style="fill:#2a2a2a;fill-opacity:1;stroke:#010100;stroke-width:4;stroke-linecap:round;stroke-linejoin:round;stroke-opacity:1;stop-color:#000000"
       d="m 1888.1156,1735.016 c -4.5137,2.8894 -8.3983,6.6162 -11.4797,10.6409 -17.8834,23.355 11.8774,27.8075 13.4721,-0.4639 0.1771,-3.1387 1.044,-7.9409 -1.9924,-10.177 z"
       id="path25189" /><path
       style="fill:#2a2a2a;fill-opacity:1;stroke:#010100;stroke-width:4;stroke-linecap:round;stroke-linejoin:round;stroke-opacity:1;stop-color:#000000"
       d="m 1799.8342,1734.7994 c 3.8501,3.1199 5.3937,7.5313 8.0475,11.3857 1.7938,2.6061 3.3672,5.4102 4.4752,8.285 6.2409,16.1912 -20.5736,14.2319 -15.5367,-15.1361 0.524,-3.0555 -0.1702,-4.7058 3.014,-4.5346 z"
       id="path25191" /><path
       style="fill:none;fill-opacity:1;stroke:#05ff1a;stroke-width:4;stroke-linecap:round;stroke-linejoin:round;stroke-opacity:1;stop-color:#000000"
       d="m 1823.983,1783.7962 c 2.4157,5.8114 6.0014,9.6018 10.6413,3.1521 2.9369,-4.0825 5.7814,-2.4892 7.3915,0.1722 4.9159,8.1256 10.1716,-0.016 12.6777,-3.489"
       id="path25197" /><path
       style="fill:#007f0e;fill-opacity:1;stroke:#000000;stroke-width:4;stroke-linecap:round;stroke-linejoin:round;stroke-opacity:1"
       d="m 1823.7381,1726.9239 c -1.2041,4.5161 -1.1901,8.743 -0.6074,13.1321 4.9392,-0.4236 8.2576,-4.9508 11.7215,-8.0844"
       id="path37" /><path
       style="fill:#007f0e;fill-opacity:1;stroke:#000000;stroke-width:4;stroke-linecap:round;stroke-linejoin:round;stroke-opacity:1"
       d="m 1865.1504,1723.1336 c 3.0017,7.3708 3.0783,11.6466 1.8023,20.3437 -5.7808,-1.9267 -14.2734,-8.682 -15.762,-15.2574"
       id="path40" /><ellipse
       style="fill:#05ff1a;fill-opacity:1;stroke:none;stroke-width:4;stroke-linecap:round;stroke-linejoin:round;stroke-opacity:1"
       id="path41"
       cx="1877.4384"
       cy="1757.9769"
       rx="3.5458496"
       ry="3.6733513" /><ellipse
       style="fill:#05ff1a;fill-opacity:1;stroke:none;stroke-width:4;stroke-linecap:round;stroke-linejoin:round;stroke-opacity:1"
       id="path41-1"
       cx="1806.9398"
       cy="1757.818"
       rx="3.2055931"
       ry="3.3208597" /></g></svg>
