<?xml version="1.0" encoding="UTF-8" standalone="no"?>
<!-- Created with Inkscape (http://www.inkscape.org/) -->

<svg
   width="128"
   height="128"
   viewBox="0 0 128 128"
   version="1.1"
   id="svg1"
   xml:space="preserve"
   sodipodi:docname="fuzzle.svg"
   inkscape:version="1.3.2 (091e20ef0f, 2023-11-25)"
   xmlns:inkscape="http://www.inkscape.org/namespaces/inkscape"
   xmlns:sodipodi="http://sodipodi.sourceforge.net/DTD/sodipodi-0.dtd"
   xmlns="http://www.w3.org/2000/svg"
   xmlns:svg="http://www.w3.org/2000/svg"><sodipodi:namedview
     id="namedview1"
     pagecolor="#ffffff"
     bordercolor="#000000"
     borderopacity="0.25"
     inkscape:showpageshadow="2"
     inkscape:pageopacity="0.0"
     inkscape:pagecheckerboard="0"
     inkscape:deskcolor="#d1d1d1"
     inkscape:zoom="1.5371094"
     inkscape:cx="178.90724"
     inkscape:cy="58.876745"
     inkscape:window-width="1920"
     inkscape:window-height="1011"
     inkscape:window-x="0"
     inkscape:window-y="0"
     inkscape:window-maximized="1"
     inkscape:current-layer="g3"><inkscape:page
       x="0"
       y="0"
       width="128"
       height="128"
       id="page1"
       margin="0"
       bleed="0"
       inkscape:label="happy" /><inkscape:page
       x="167.39436"
       y="0"
       width="128"
       height="128"
       id="page2"
       margin="0"
       bleed="0"
       inkscape:label="error" /><inkscape:page
       x="335.13617"
       y="0"
       width="128"
       height="128"
       id="page3"
       margin="0"
       bleed="0"
       inkscape:label="info" /></sodipodi:namedview><defs
     id="defs1"><filter
       style="color-interpolation-filters:sRGB"
       id="filter53"
       x="-9.4886687"
       y="-0.49902027"
       width="19.971953"
       height="1.8298176"><feGaussianBlur
         stdDeviation="10.603034"
         id="feGaussianBlur53" /></filter></defs><g
     id="g41"
     transform="translate(-1779.8381,-1683.2347)"><path
       style="fill:#777777;fill-opacity:1;stroke:#010100;stroke-width:4;stroke-linecap:round;stroke-linejoin:round;stroke-opacity:1;stop-color:#000000"
       d="m 1810.323,1729.2764 c -11.1825,-8.0442 -8.7631,-25.4774 -8.3742,-36.9529 13.2372,1.4788 30.8594,17.6147 33.8662,27.9231"
       id="path25211" /><path
       style="fill:#777777;fill-opacity:1;stroke:#010100;stroke-width:4;stroke-linecap:round;stroke-linejoin:round;stroke-opacity:1;stop-color:#000000"
       d="m 1854.6397,1716.0789 c 7.2374,-10.4081 22.7631,-17.8126 35.5407,-23.209 4.0147,15.0099 -1.6208,27.6448 -11.1723,39.3225"
       id="path25205" /><path
       style="fill:#0f0f0f;fill-opacity:1;stroke:#010100;stroke-width:4;stroke-linecap:round;stroke-linejoin:round;stroke-opacity:1;stop-color:#000000"
       d="m 1801.2484,1748.262 c 12.0077,-17.6011 52.2051,-27.243 76.3718,-3.2433 3.5119,3.4873 4.9027,8.142 4.8985,8.1634 -11.4301,16.11 -13.7578,30.1619 -27.8762,44.0257 -5.3085,5.2128 -22.1589,7.2099 -28.877,1.4439 -11.7701,-10.1021 -13.9269,-38.6041 -22.3236,-45.9788 z"
       id="path25187" /><path
       style="fill:none;fill-opacity:1;stroke:#05ff1a;stroke-width:4;stroke-linecap:round;stroke-linejoin:round;stroke-opacity:1;stop-color:#000000"
       d="m 1821.0938,1762.3149 c 2.6421,-4.1238 10.9209,-5.594 14.967,-2.4865"
       id="path25262" /><path
       style="fill:none;fill-opacity:1;stroke:#05ff1a;stroke-width:4;stroke-linecap:round;stroke-linejoin:round;stroke-opacity:1;stop-color:#000000"
       d="m 1846.3333,1760.5514 c 4.8564,-3.7613 11.2554,-4.0963 13.7286,1.3243"
       id="path25264" /><path
       id="path25199"
       style="fill:#007f0e;fill-opacity:1;stroke:#010100;stroke-width:4;stroke-linecap:round;stroke-linejoin:round;stroke-opacity:1;stop-color:#000000"
       d="m 1857.9453,1699.5352 c -2.9367,-0.4496 -8.4572,6.6928 -11.7617,7.0039 -3.9032,0.367 -2.5707,-5.4752 -5.2695,-6.4981 -3.6425,-1.3807 -8.7918,12.2252 -12.3223,13.1231 -3.8442,0.978 -9.0366,-8.9653 -12.2676,-7.0782 -3.0246,1.7667 -0.4745,13.6988 -1.7656,17.2559 -1.0089,2.7796 -8.7671,-4.801 -10.4063,-2.252 -3.9071,6.0757 -2.105,11.4088 -2.4785,16.9571 -6.7186,3.109 -6.2552,7.8587 3.0785,10.1637 2.0527,0.5069 7.796,6.3561 8.0299,5.8873 1.2291,-2.4629 2.0699,-9.6488 4.391,-7.8124 2.7544,2.1791 6.3503,6.46 7.9913,5.4845 2.6104,-1.5517 4.606,-7.3845 6.1987,-7.5735 4.3303,-0.5141 4.7993,9.3429 8.7199,9.648 3.2366,0.2519 2.9039,-6.7014 7.0856,-6.6804 3.9539,0.02 6.6067,5.5063 9.0647,5.1678 3.3156,-0.4566 3.9366,-9.0698 6.2369,-8.0808 3.1472,1.3531 0.4699,5.8538 3.1422,7.7583 2.9793,2.1235 8.8332,-2.7497 12.6013,-3.6911 1.6241,-4.6313 3.1439,-4.0566 6.9014,-8.1464 2.4915,-6.7941 5.8192,-17.8005 5.3926,-18.0762 -1.5055,-0.9713 -15.1482,3.653 -15.6387,1.6016 -0.486,-2.0301 4.3158,-13.728 1.5586,-14.9141 -2.8521,-1.2273 -13.6002,7.7929 -15.3457,5.498 -2.1779,-2.8628 1.2981,-12.2468 -2.584,-14.5507 -0.1713,-0.1017 -0.3569,-0.1654 -0.5527,-0.1953 z" /><path
       style="fill:#2a2a2a;fill-opacity:1;stroke:#010100;stroke-width:4;stroke-linecap:round;stroke-linejoin:round;stroke-opacity:1;stop-color:#000000"
       d="m 1888.1156,1735.016 c -4.5137,2.8894 -8.3983,6.6162 -11.4797,10.6409 -17.8834,23.355 11.8774,27.8075 13.4721,-0.4639 0.1771,-3.1387 1.044,-7.9409 -1.9924,-10.177 z"
       id="path25189" /><path
       style="fill:#2a2a2a;fill-opacity:1;stroke:#010100;stroke-width:4;stroke-linecap:round;stroke-linejoin:round;stroke-opacity:1;stop-color:#000000"
       d="m 1799.8342,1734.7994 c 3.8501,3.1199 5.3937,7.5313 8.0475,11.3857 1.7938,2.6061 3.3672,5.4102 4.4752,8.285 6.2409,16.1912 -20.5736,14.2319 -15.5367,-15.1361 0.524,-3.0555 -0.1702,-4.7058 3.014,-4.5346 z"
       id="path25191" /><path
       style="fill:none;fill-opacity:1;stroke:#05ff1a;stroke-width:4;stroke-linecap:round;stroke-linejoin:round;stroke-opacity:1;stop-color:#000000"
       d="m 1823.983,1783.7962 c 2.4157,5.8114 6.0014,9.6018 10.6413,3.1521 2.9369,-4.0825 5.7814,-2.4892 7.3915,0.1722 4.9159,8.1256 10.1716,-0.016 12.6777,-3.489"
       id="path25197" /><path
       style="fill:#007f0e;fill-opacity:1;stroke:#000000;stroke-width:4;stroke-linecap:round;stroke-linejoin:round;stroke-opacity:1"
       d="m 1823.7381,1726.9239 c -1.2041,4.5161 -1.1901,8.743 -0.6074,13.1321 4.9392,-0.4236 8.2576,-4.9508 11.7215,-8.0844"
       id="path37" /><path
       style="fill:#007f0e;fill-opacity:1;stroke:#000000;stroke-width:4;stroke-linecap:round;stroke-linejoin:round;stroke-opacity:1"
       d="m 1865.1504,1723.1336 c 3.0017,7.3708 3.0783,11.6466 1.8023,20.3437 -5.7808,-1.9267 -14.2734,-8.682 -15.762,-15.2574"
       id="path40" /><ellipse
       style="fill:#05ff1a;fill-opacity:1;stroke:none;stroke-width:4;stroke-linecap:round;stroke-linejoin:round;stroke-opacity:1"
       id="path41"
       cx="1877.4384"
       cy="1757.9769"
       rx="3.5458496"
       ry="3.6733513" /><ellipse
       style="fill:#05ff1a;fill-opacity:1;stroke:none;stroke-width:4;stroke-linecap:round;stroke-linejoin:round;stroke-opacity:1"
       id="path41-1"
       cx="1806.9398"
       cy="1757.818"
       rx="3.2055931"
       ry="3.3208597" /></g><g
     id="g3"
     transform="translate(-0.64886318,2.6814709)"><path
       style="fill:#777777;fill-opacity:1;stroke:#010100;stroke-width:4;stroke-linecap:round;stroke-linejoin:round;stroke-opacity:1;stop-color:#000000"
       d="m 198.52812,43.360268 c -11.1825,-8.0442 -8.7631,-25.4774 -8.3742,-36.9529002 13.2372,1.4788 30.8594,17.6147002 33.8662,27.9231002"
       id="path25211-5" /><path
       style="fill:#777777;fill-opacity:1;stroke:#010100;stroke-width:4;stroke-linecap:round;stroke-linejoin:round;stroke-opacity:1;stop-color:#000000"
       d="m 242.84482,30.162768 c 7.2374,-10.4081 22.7631,-17.8126 35.5407,-23.2090002 4.0147,15.0099002 -1.6208,27.6448002 -11.1723,39.3225002"
       id="path25205-3" /><path
       style="fill:#0f0f0f;fill-opacity:1;stroke:#010100;stroke-width:4;stroke-linecap:round;stroke-linejoin:round;stroke-opacity:1;stop-color:#000000"
       d="m 189.45352,62.345868 c 12.0077,-17.6011 52.2051,-27.243 76.3718,-3.2433 3.5119,3.4873 4.9027,8.142 4.8985,8.1634 -11.4301,16.11 -13.7578,30.161905 -27.8762,44.025702 -5.3085,5.2128 -22.1589,7.2099 -28.877,1.4439 -11.7701,-10.1021 -13.9269,-38.604102 -22.3236,-45.978802 z"
       id="path25187-5" /><path
       id="path25199-6"
       style="fill:#007f0e;fill-opacity:1;stroke:#010100;stroke-width:4;stroke-linecap:round;stroke-linejoin:round;stroke-opacity:1;stop-color:#000000"
       d="m 246.15042,13.619068 c -2.9367,-0.4496 -8.4572,6.6928 -11.7617,7.0039 -3.9032,0.367 -2.5707,-5.4752 -5.2695,-6.4981 -3.6425,-1.3807 -8.7918,12.2252 -12.3223,13.1231 -3.8442,0.978 -9.0366,-8.9653 -12.2676,-7.0782 -3.0246,1.7667 -0.4745,13.6988 -1.7656,17.2559 -1.0089,2.7796 -8.7671,-4.801 -10.4063,-2.252 -3.9071,6.0757 -2.105,11.4088 -2.4785,16.9571 -6.7186,3.109 -6.2552,7.8587 3.0785,10.1637 2.0527,0.5069 7.796,6.3561 8.0299,5.8873 1.2291,-2.4629 2.0699,-9.6488 4.391,-7.8124 2.7544,2.1791 6.3503,6.46 7.9913,5.4845 2.6104,-1.5517 4.606,-7.3845 6.1987,-7.5735 4.3303,-0.5141 4.7993,9.3429 8.7199,9.648 3.2366,0.2519 2.9039,-6.7014 7.0856,-6.6804 3.9539,0.02 6.6067,5.5063 9.0647,5.1678 3.3156,-0.4566 3.9366,-9.0698 6.2369,-8.0808 3.1472,1.3531 0.4699,5.8538 3.1422,7.7583 2.9793,2.1235 8.8332,-2.7497 12.6013,-3.6911 1.6241,-4.6313 3.1439,-4.0566 6.9014,-8.1464 2.4915,-6.7941 5.8192,-17.8005 5.3926,-18.0762 -1.5055,-0.9713 -15.1482,3.653 -15.6387,1.6016 -0.486,-2.0301 4.3158,-13.728 1.5586,-14.9141 -2.8521,-1.2273 -13.6002,7.7929 -15.3457,5.498 -2.1779,-2.8628 1.2981,-12.2468 -2.584,-14.5507 -0.1713,-0.1017 -0.3569,-0.1654 -0.5527,-0.1953 z" /><path
       style="fill:#2a2a2a;fill-opacity:1;stroke:#010100;stroke-width:4;stroke-linecap:round;stroke-linejoin:round;stroke-opacity:1;stop-color:#000000"
       d="m 276.32072,49.099868 c -4.5137,2.8894 -8.3983,6.6162 -11.4797,10.6409 -17.8834,23.355 11.8774,27.8075 13.4721,-0.4639 0.1771,-3.1387 1.044,-7.9409 -1.9924,-10.177 z"
       id="path25189-2" /><path
       style="fill:#2a2a2a;fill-opacity:1;stroke:#010100;stroke-width:4;stroke-linecap:round;stroke-linejoin:round;stroke-opacity:1;stop-color:#000000"
       d="m 188.03932,48.883268 c 3.8501,3.1199 5.3937,7.5313 8.0475,11.3857 1.7938,2.6061 3.3672,5.4102 4.4752,8.285 6.2409,16.1912 -20.5736,14.2319 -15.5367,-15.1361 0.524,-3.0555 -0.1702,-4.7058 3.014,-4.5346 z"
       id="path25191-9" /><path
       style="fill:#007f0e;fill-opacity:1;stroke:#000000;stroke-width:4;stroke-linecap:round;stroke-linejoin:round;stroke-opacity:1"
       d="m 211.94322,41.007768 c -1.2041,4.5161 -1.1901,8.743 -0.6074,13.1321 4.9392,-0.4236 8.2576,-4.9508 11.7215,-8.0844"
       id="path37-1" /><path
       style="fill:#007f0e;fill-opacity:1;stroke:#000000;stroke-width:4;stroke-linecap:round;stroke-linejoin:round;stroke-opacity:1"
       d="m 253.35552,37.217468 c 3.0017,7.3708 3.0783,11.6466 1.8023,20.3437 -5.7808,-1.9267 -14.2734,-8.682 -15.762,-15.2574"
       id="path40-2" /><ellipse
       style="fill:#ff3a05;fill-opacity:1;stroke:none;stroke-width:4;stroke-linecap:round;stroke-linejoin:round;stroke-opacity:1"
       id="path41-7"
       cx="265.64349"
       cy="72.060799"
       rx="3.5458496"
       ry="3.6733513" /><ellipse
       style="fill:#ff3a05;fill-opacity:1;stroke:none;stroke-width:4;stroke-linecap:round;stroke-linejoin:round;stroke-opacity:1"
       id="path41-1-0"
       cx="195.14493"
       cy="71.901863"
       rx="3.2055931"
       ry="3.3208597" /><path
       style="fill:none;fill-opacity:1;stroke:#ff3a05;stroke-width:4;stroke-linecap:round;stroke-linejoin:round;stroke-opacity:1"
       d="m 217.69262,78.153868 c 12.2443,-11.3473 21.2973,2.6267 8.5706,7.9172 -18.3907,7.6445 6.0025,19.162402 9.6861,7.626"
       id="path2"
       sodipodi:nodetypes="csc" /><path
       style="fill:none;fill-opacity:1;stroke:#ff3a05;stroke-width:4;stroke-linecap:round;stroke-linejoin:round;stroke-opacity:1"
       d="m 227.42692,107.86187 c 0.4756,0.034 0.7156,0.066 1.3191,-0.029"
       id="path3"
       sodipodi:nodetypes="cc" /></g><g
     id="g4"
     transform="translate(-1.1283172,2.0328748)"><path
       style="fill:#777777;fill-opacity:1;stroke:#010100;stroke-width:4;stroke-linecap:round;stroke-linejoin:round;stroke-opacity:1;stop-color:#000000"
       d="m 366.74938,44.008865 c -11.1825,-8.0442 -8.7631,-25.4774 -8.3742,-36.9529 13.2372,1.4788 30.8594,17.6147 33.8662,27.9231"
       id="path25211-0" /><path
       style="fill:#777777;fill-opacity:1;stroke:#010100;stroke-width:4;stroke-linecap:round;stroke-linejoin:round;stroke-opacity:1;stop-color:#000000"
       d="m 411.06608,30.811365 c 7.2374,-10.4081 22.7631,-17.8126 35.5407,-23.209 4.0147,15.0099 -1.6208,27.6448 -11.1723,39.3225"
       id="path25205-6" /><path
       style="fill:#0f0f0f;fill-opacity:1;stroke:#010100;stroke-width:4;stroke-linecap:round;stroke-linejoin:round;stroke-opacity:1;stop-color:#000000"
       d="m 357.67478,62.994465 c 12.0077,-17.6011 52.2051,-27.243 76.3718,-3.2433 3.5119,3.4873 4.9027,8.142 4.8985,8.1634 -11.4301,16.11 -13.7578,30.1619 -27.8762,44.025705 -5.3085,5.21279 -22.1589,7.2099 -28.877,1.44389 -11.7701,-10.10209 -13.9269,-38.604095 -22.3236,-45.978795 z"
       id="path25187-2" /><path
       style="fill:none;fill-opacity:1;stroke:#05beff;stroke-width:4;stroke-linecap:round;stroke-linejoin:round;stroke-opacity:1;stop-color:#000000"
       d="m 379.53578,77.816365 c 3.455,0.4961 8.4509,1.4015 9.938,4.429 -0.8926,2.695 -7.5446,4.621 -9.8573,5.1122"
       id="path25262-6"
       sodipodi:nodetypes="ccc" /><path
       style="fill:none;fill-opacity:1;stroke:#05beff;stroke-width:4;stroke-linecap:round;stroke-linejoin:round;stroke-opacity:1;stop-color:#000000"
       d="m 413.42498,87.217265 c -3.5153,-0.5099 -9.9983,-2.9425 -9.9178,-5.5178 0.076,-2.4336 7.3929,-4.7773 10.0263,-4.7166"
       id="path25264-1"
       sodipodi:nodetypes="ccc" /><path
       id="path25199-8"
       style="fill:#007f0e;fill-opacity:1;stroke:#010100;stroke-width:4;stroke-linecap:round;stroke-linejoin:round;stroke-opacity:1;stop-color:#000000"
       d="m 414.37168,14.267665 c -2.9367,-0.4496 -8.4572,6.6928 -11.7617,7.0039 -3.9032,0.367 -2.5707,-5.4752 -5.2695,-6.4981 -3.6425,-1.3807 -8.7918,12.2252 -12.3223,13.1231 -3.8442,0.978 -9.0366,-8.9653 -12.2676,-7.0782 -3.0246,1.7667 -0.4745,13.6988 -1.7656,17.2559 -1.0089,2.7796 -8.7671,-4.801 -10.4063,-2.252 -3.9071,6.0757 -2.105,11.4088 -2.4785,16.9571 -6.7186,3.109 -6.2552,7.8587 3.0785,10.1637 2.0527,0.5069 7.796,6.3561 8.0299,5.8873 1.2291,-2.4629 2.0699,-9.6488 4.391,-7.8124 2.7544,2.1791 6.3503,6.46 7.9913,5.4845 2.6104,-1.5517 4.606,-7.3845 6.1987,-7.5735 4.3303,-0.5141 4.7993,9.3429 8.7199,9.648 3.2366,0.2519 2.9039,-6.7014 7.0856,-6.6804 3.9539,0.02 6.6067,5.5063 9.0647,5.1678 3.3156,-0.4566 3.9366,-9.0698 6.2369,-8.0808 3.1472,1.3531 0.4699,5.8538 3.1422,7.7583 2.9793,2.1235 8.8332,-2.7497 12.6013,-3.6911 1.6241,-4.6313 3.1439,-4.0566 6.9014,-8.1464 2.4915,-6.7941 5.8192,-17.8005 5.3926,-18.0762 -1.5055,-0.9713 -15.1482,3.653 -15.6387,1.6016 -0.486,-2.0301 4.3158,-13.728 1.5586,-14.9141 -2.8521,-1.2273 -13.6002,7.7929 -15.3457,5.498 -2.1779,-2.8628 1.2981,-12.2468 -2.584,-14.5507 -0.1713,-0.1017 -0.3569,-0.1654 -0.5527,-0.1953 z" /><path
       style="fill:#2a2a2a;fill-opacity:1;stroke:#010100;stroke-width:4;stroke-linecap:round;stroke-linejoin:round;stroke-opacity:1;stop-color:#000000"
       d="m 444.54198,49.748465 c -4.5137,2.8894 -8.3983,6.6162 -11.4797,10.6409 -17.8834,23.355 11.8774,27.8075 13.4721,-0.4639 0.1771,-3.1387 1.044,-7.9409 -1.9924,-10.177 z"
       id="path25189-7" /><path
       style="fill:#2a2a2a;fill-opacity:1;stroke:#010100;stroke-width:4;stroke-linecap:round;stroke-linejoin:round;stroke-opacity:1;stop-color:#000000"
       d="m 356.26058,49.531865 c 3.8501,3.1199 5.3937,7.5313 8.0475,11.3857 1.7938,2.6061 3.3672,5.4102 4.4752,8.285 6.2409,16.1912 -20.5736,14.2319 -15.5367,-15.1361 0.524,-3.0555 -0.1702,-4.7058 3.014,-4.5346 z"
       id="path25191-92" /><path
       style="fill:#007f0e;fill-opacity:1;stroke:#000000;stroke-width:4;stroke-linecap:round;stroke-linejoin:round;stroke-opacity:1"
       d="m 380.16448,41.656365 c -1.2041,4.5161 -1.1901,8.743 -0.6074,13.1321 4.9392,-0.4236 8.2576,-4.9508 11.7215,-8.0844"
       id="path37-0" /><path
       style="fill:#007f0e;fill-opacity:1;stroke:#000000;stroke-width:4;stroke-linecap:round;stroke-linejoin:round;stroke-opacity:1"
       d="m 421.57678,37.866065 c 3.0017,7.3708 3.0783,11.6466 1.8023,20.3437 -5.7808,-1.9267 -14.2734,-8.682 -15.762,-15.2574"
       id="path40-23" /><ellipse
       style="fill:#05beff;fill-opacity:1;stroke:none;stroke-width:4;stroke-linecap:round;stroke-linejoin:round;stroke-opacity:1"
       id="path41-75"
       cx="433.86475"
       cy="72.709389"
       rx="3.5458496"
       ry="3.6733513" /><ellipse
       style="fill:#05beff;fill-opacity:1;stroke:none;stroke-width:4;stroke-linecap:round;stroke-linejoin:round;stroke-opacity:1"
       id="path41-1-9"
       cx="363.36621"
       cy="72.550453"
       rx="3.2055931"
       ry="3.3208597" /><path
       style="fill:#7f1500;fill-opacity:1;stroke:#05beff;stroke-width:4;stroke-linecap:round;stroke-linejoin:round;stroke-opacity:1"
       d="m 392.73488,105.19367 c 2.0941,0.44119 3.8803,0.3714 5.8865,0.13729"
       id="path1"
       sodipodi:nodetypes="cc" /></g></svg>
